<?xml version="1.0" encoding="utf-8"?>
<!-- Generator: Adobe Illustrator 22.0.1, SVG Export Plug-In . SVG Version: 6.00 Build 0)  -->
<svg version="1.1" id="Calque_1" xmlns="http://www.w3.org/2000/svg" xmlns:xlink="http://www.w3.org/1999/xlink" x="0px" y="0px"
	 viewBox="0 0 731.7 211.6" style="enable-background:new 0 0 731.7 211.6;" xml:space="preserve">
<style type="text/css">
	.st0{fill:#030104;}
	.st1{stroke:#000000;stroke-width:3;stroke-linejoin:bevel;stroke-miterlimit:10;}
</style>
<g>
	<path class="st0" d="M555,96.3V85.1c0-14-11.4-25.3-25.3-25.3s-25.3,11.4-25.3,25.3v11.2h-4.9v47.1h61V96.3H555z M535.6,120.7v10
		c0,2.6-2.1,4.7-4.7,4.7c-2.6,0-4.7-2.1-4.7-4.7v-10c-1.6-1.4-2.7-3.4-2.7-5.7c0-4.1,3.3-7.4,7.4-7.4s7.4,3.3,7.4,7.4
		C538.3,117.3,537.2,119.3,535.6,120.7z M545.7,96.3h-32.2V85.1c0-8.9,7.2-16.1,16.1-16.1c8.9,0,16.1,7.2,16.1,16.1L545.7,96.3
		L545.7,96.3z"/>
</g>
<g>
	<path d="M50.8,143.7l-9.5-0.1V89.9c0-8.5,2.5-15.2,7.6-20c5.1-4.9,12.1-7.3,21-7.3c7.5,0,14.1,2.4,19.6,7.3
		c5.5,4.9,8.7,11.1,9.5,18.7c0.1,0.5,0.1,0.9,0.1,1.4s0,0.9,0,1.3c0,7.1-2.4,13.3-7.1,18.6c-4.7,5.3-10.7,8.6-18,10
		c-0.7,0.2-1.5,0.3-2.4,0.3c-0.9,0.1-1.7,0.1-2.5,0.1c-3.6,0-7-0.8-10.1-2.3c-2.7-1.7-5.3-3.4-7.9-5.1c-0.2,0-0.3,0.3-0.3,0.8V143.7
		z M88.7,90.9c0-5.2-1.9-9.7-5.6-13.4C79.4,73.8,75,72,69.8,72c-4.9,0-9.2,1.8-12.9,5.3c-3.6,3.6-5.5,7.8-5.5,12.7
		c0,6.1,1.8,10.9,5.3,14.5c3.5,3.6,8,5.4,13.4,5.4c5.2,0,9.6-1.8,13.2-5.5C86.9,100.7,88.7,96.2,88.7,90.9z"/>
	<path d="M205.5,143.5V62.6h11.1v66.8c0,1.7,0.1,2.8,0.3,3.3s1,0.7,2.3,0.7c0.9,0,1.6,0,1.9,0h22.6v10.1H205.5z"/>
	<path d="M268.8,113.9c0-2.6-1.4-7-4.1-13.2c-2.1-4.9-5.2-11.2-9.3-19c-3.4-6.4-6.8-12.8-10.1-19.1h12c6.5,14.1,11.1,23.3,13.6,27.8
		c2,3.6,3.5,5.4,4.4,5.4c0.8,0,2.1-1.3,3.6-3.8c1.3-2.1,3.3-5.8,6.2-11.3c6-11.7,9.1-17.7,9.3-18.1h11.1c-1,2-4.3,8-10,18.1
		c-4.3,7.7-7.8,14.2-10.3,19.5c-3.2,6.7-4.8,11.3-4.8,13.9c0,0.9,0,1.7,0,2.5s0,1.4,0,1.9c0,1.9,0,3.3,0,4.2c0,1.7,0,2.9,0,3.8
		c0,1.4,0,2.5,0,3.3c0,1.2,0,2.1,0,2.7c0,1.1,0,1.8,0,2.3c0,0.8,0,1.4,0,1.8c0,0.7,0,1.2,0,1.5c0,1.6,0,2.8,0,3.7c0,0.9,0,1.5,0,1.8
		h-11.5c0-2.1,0-6,0-11.7C268.8,126.2,268.8,120.2,268.8,113.9z"/>
	<path d="M335.8,143.8V62.6h37.3V72H351c-0.6,0-1.1,0-1.4,0c-1.8,0-2.8,0.2-3.2,0.7c-0.4,0.5-0.6,1.1-0.6,2.1c0,0.6,0,1.1,0,1.4
		v13.9c0,1.8,0.3,3,0.8,3.6c0.5,0.7,1.4,1,2.7,1c0.5,0,0.9,0,1.1,0h21.1v9.8h-21.5c-0.9,0-1.6,0-1.9,0.1c-0.5,0.1-1,0.4-1.5,0.9
		c-0.5,0.5-0.7,1.4-0.7,2.5c0,0.5,0,0.8,0,1v19.8l0.2,3.8c0.2,0.2,0.5,0.4,1.1,0.6c0.6,0.2,1.5,0.2,2.8,0.2h24v10.5H335.8z"/>
	<path d="M411.8,78.5c-1.6-2.8-3.1-4.7-4.4-5.6c-1.3-0.9-3.2-1.4-5.6-1.4c-3,0-5.5,1.2-7.5,3.5c-2.1,2.4-3.1,5.1-3.1,8.1
		c0,3.7,3.1,6.9,9.2,9.6c9.7,4.2,15.5,6.9,17.2,8.2c6.2,4.6,9.2,11.1,9.2,19.6c0,6.6-2.4,12.3-7.1,16.9c-4.8,4.7-10.3,7-16.6,7
		c-5.3,0-10.3-1.7-14.9-5c-5-3.6-8.2-8.3-9.5-13.9l9.3-4c0.8,3.8,2.5,6.9,5.1,9.3c2.6,2.4,5.8,3.6,9.6,3.6c3.8,0,7.1-1.4,10-4.2
		c2.9-2.8,4.3-6.1,4.3-9.8c0-6.5-3.1-11.4-9.2-14.5c-5.8-2.3-11.5-4.6-17.2-7c-6.2-3.3-9.2-8.6-9.2-15.8c0-5.8,1.8-10.7,5.5-14.8
		c3.7-4.1,8.6-6.1,14.8-6.1c4.2,0,8,1.1,11.3,3.3c3.4,2.2,5.7,5.2,7,9L411.8,78.5z"/>
	<path d="M485.9,132v9.9c-4.5,1.7-9,2.5-13.6,2.5c-11.3,0-21-4-29-12.1c-8-8.1-12-17.7-12-29.1c0-11.1,4-20.6,12-28.4
		c8-7.9,17.6-11.8,28.8-11.8c4.9,0,9.5,0.7,13.8,2.1v10.1c-4.3-2.1-8.9-3.1-13.8-3.1c-8.6,0-15.9,3.1-22,9.2
		c-6.1,6.2-9.1,13.6-9.1,22.2c0,8.6,3,16,9.1,22.2c6.1,6.2,13.4,9.3,22,9.3c2.6,0,5-0.3,7.3-0.9C481.8,133.8,484,133,485.9,132z"/>
	<path d="M581.8,143.7l-9.5-0.1V89.9c0-8.5,2.5-15.2,7.6-20c5.1-4.9,12.1-7.3,21-7.3c7.5,0,14.1,2.4,19.6,7.3
		c5.5,4.9,8.7,11.1,9.5,18.7c0.1,0.5,0.1,0.9,0.1,1.4s0,0.9,0,1.3c0,7.1-2.4,13.3-7.1,18.6c-4.7,5.3-10.7,8.6-18,10
		c-0.7,0.2-1.5,0.3-2.4,0.3c-0.9,0.1-1.7,0.1-2.5,0.1c-3.6,0-7-0.8-10.1-2.3c-2.7-1.7-5.3-3.4-7.9-5.1c-0.2,0-0.3,0.3-0.3,0.8V143.7
		z M619.8,90.9c0-5.2-1.9-9.7-5.6-13.4c-3.7-3.7-8.2-5.6-13.3-5.6c-4.9,0-9.2,1.8-12.9,5.3c-3.6,3.6-5.5,7.8-5.5,12.7
		c0,6.1,1.8,10.9,5.3,14.5c3.5,3.6,8,5.4,13.4,5.4c5.2,0,9.6-1.8,13.2-5.5C618,100.7,619.8,96.2,619.8,90.9z"/>
	<path d="M637.8,143.8V62.6h37.3V72H653c-0.6,0-1.1,0-1.4,0c-1.8,0-2.8,0.2-3.2,0.7c-0.4,0.5-0.6,1.1-0.6,2.1c0,0.6,0,1.1,0,1.4
		v13.9c0,1.8,0.3,3,0.8,3.6c0.5,0.7,1.4,1,2.7,1c0.5,0,0.9,0,1.1,0h21.1v9.8H652c-0.9,0-1.6,0-1.9,0.1c-0.5,0.1-1,0.4-1.5,0.9
		c-0.5,0.5-0.7,1.4-0.7,2.5c0,0.5,0,0.8,0,1v19.8l0.2,3.8c0.2,0.2,0.5,0.4,1.1,0.6c0.6,0.2,1.5,0.2,2.8,0.2h24v10.5H637.8z"/>
</g>
<g>
	<g>
		<path class="st1" d="M177.2,75.2c-7.5-7.5-17.4-11.6-27.9-11.6c-10.5,0-20.5,4.1-27.9,11.6c-7.5,7.5-11.6,17.4-11.6,27.9
			c0,10.5,4.1,20.5,11.6,27.9c7.5,7.5,17.4,11.6,27.9,11.6c5.2,0,10.3-1,15.1-3c4.8-2,9.1-4.9,12.8-8.6c0.6-0.6,0.6-1.6,0-2.2
			c-0.6-0.6-1.6-0.6-2.2,0c-6.9,6.9-16,10.7-25.7,10.7c-6.1,0-11.8-1.5-16.8-4.1l3.1-5.3c0,0,0,0,0,0c0.1-0.2,0.2-0.5,0.2-0.7
			c0-0.5-0.3-1.1-0.8-1.4c0,0,0,0,0,0c-8.4-4.9-13.8-13.7-14.3-23.3h6.1c0.9,0,1.5-0.7,1.5-1.5c0-0.9-0.7-1.5-1.5-1.5h-6.1
			c0.1-2,0.4-4,0.9-5.9c0.2-0.8-0.3-1.7-1.1-1.9c-0.8-0.2-1.7,0.3-1.9,1.1c-0.7,2.7-1.1,5.4-1.1,8.2c0,10.8,5.5,20.9,14.6,26.7
			l-2.3,4c-10.1-6.5-16.9-17.8-16.9-30.7c0-6.1,1.5-11.8,4.1-16.8l5.3,3.1c0.2,0.1,0.5,0.2,0.8,0.2c0.5,0,1.1-0.3,1.3-0.8
			c0,0,0,0,0,0c1.3-2.2,2.8-4.2,4.6-5.9c0.6-0.6,0.6-1.6,0-2.2c-0.6-0.6-1.6-0.6-2.2,0c-1.6,1.6-3,3.4-4.2,5.3l-4-2.3
			c6.5-10.1,17.8-16.9,30.7-16.9c6.1,0,11.8,1.5,16.8,4.1l-3.1,5.3c-0.4,0.7-0.2,1.7,0.6,2.1c0.2,0.1,0.5,0.2,0.8,0.2
			c0.5,0,1.1-0.3,1.3-0.8l3.1-5.3c4.5,2.9,8.3,6.7,11.2,11.2l-4,2.3c-1.2-1.9-2.6-3.7-4.2-5.3c-0.6-0.6-1.6-0.6-2.2,0
			c-0.6,0.6-0.6,1.6,0,2.2c3.6,3.6,6.1,8,7.4,12.9c0.2,0.7,0.8,1.1,1.5,1.1c0.1,0,0.3,0,0.4-0.1c0.8-0.2,1.3-1.1,1.1-1.9
			c-0.6-2.2-1.4-4.3-2.4-6.3l4-2.3c2.6,5,4.1,10.8,4.1,16.8c0,5.9-1.4,11.7-4.1,16.8l-4-2.3c2.2-4.4,3.5-9.3,3.5-14.5
			c0-0.9-0.7-1.5-1.5-1.5h-6.2c0-0.5-0.1-1-0.1-1.5c-0.1-0.8-0.9-1.4-1.7-1.3c-0.8,0.1-1.4,0.9-1.3,1.7c0.1,0.9,0.2,1.7,0.2,2.6
			c0,3.2-0.7,6.3-2.1,9.1l-4-2.3c1-2.1,1.5-4.5,1.5-6.8c0-0.9-0.7-1.5-1.5-1.5h-7.7c0,0,0,0,0,0c-0.9,0-1.5,0.7-1.5,1.5
			c0,3.1-2.5,5.6-5.6,5.6c-3.1,0-5.6-2.5-5.6-5.6c0-3.1,2.5-5.6,5.6-5.6c0.9,0,1.5-0.7,1.5-1.5c0-0.9-0.7-1.5-1.5-1.5
			c-4.2,0-7.8,3.1-8.5,7.1h-4.7c0.8-6.6,6.4-11.7,13.2-11.7c4.7,0,9.1,2.5,11.5,6.6c0.4,0.7,1.4,1,2.1,0.6c0.7-0.4,1-1.4,0.6-2.1
			c-1.2-2.1-2.8-3.8-4.7-5.1l2.3-4c2.6,1.8,4.8,4.1,6.4,6.9c0.3,0.5,0.8,0.8,1.3,0.8c0.3,0,0.5-0.1,0.8-0.2c0.7-0.4,1-1.4,0.6-2.1
			c-2.1-3.7-5.2-6.7-8.8-8.8c0,0,0,0,0,0c0,0,0,0,0,0c-1.4-0.8-2.8-1.5-4.4-2c-0.8-0.3-1.7,0.2-2,1c-0.3,0.8,0.2,1.7,1,2
			c0.8,0.3,1.7,0.6,2.4,1l-2.3,4c-2.1-1-4.4-1.5-6.8-1.5c-5.5,0-10.4,2.7-13.3,6.9l-4-2.3c2.6-3.8,6.3-6.6,10.7-8.1
			c0.8-0.3,1.2-1.1,1-2c-0.3-0.8-1.1-1.2-2-1c-1,0.3-2.1,0.8-3,1.3l-2.3-4c3.6-1.8,7.5-2.9,11.4-3.1v6.1c0,0.9,0.7,1.5,1.5,1.5
			c0.9,0,1.5-0.7,1.5-1.5v-6.1c2,0.1,4,0.4,5.9,0.9c0.8,0.2,1.7-0.3,1.9-1.1c0.2-0.8-0.3-1.7-1.1-1.9c-2.7-0.7-5.4-1.1-8.2-1.1
			c-5.6,0-11.1,1.5-15.9,4.3c-0.7,0.4-1,1.4-0.6,2.1c0,0,0,0,0,0l3.1,5.4c-3.1,2-5.6,4.8-7.5,8c0,0,0,0,0,0c0,0,0,0,0,0
			c-0.5,0.9-0.9,1.8-1.3,2.7c-0.3,0.8,0,1.7,0.8,2c0.2,0.1,0.4,0.1,0.6,0.1c0.6,0,1.2-0.4,1.4-0.9c0.1-0.3,0.3-0.7,0.5-1l4,2.3
			c-1,2.1-1.5,4.4-1.5,6.8c0,2.4,0.5,4.7,1.5,6.8l-4,2.3c-0.2-0.4-0.4-0.9-0.6-1.3c-0.3-0.8-1.2-1.2-2-0.9c-0.8,0.3-1.2,1.2-0.9,2
			c2.6,6.6,8,11.7,14.8,13.9c0.2,0.1,0.3,0.1,0.5,0.1c0.6,0,1.2-0.4,1.5-1.1c0.3-0.8-0.2-1.7-1-1.9c-4.4-1.5-8.2-4.3-10.8-8.1l4-2.3
			c3,4.2,7.8,6.9,13.3,6.9c2.9,0,5.7-0.8,8.2-2.2c0.7-0.4,1-1.4,0.6-2.1c-0.4-0.7-1.4-1-2.1-0.6c-1.6,0.9-3.3,1.5-5.1,1.7v-4.7
			c3.5-0.6,6.3-3.4,7-7h4.7c-0.2,1.8-0.8,3.5-1.7,5.1c0,0,0,0,0,0c-0.4,0.7-0.2,1.7,0.6,2.1l5.3,3.1c-0.4,0.6-0.8,1.1-1.3,1.7
			c-0.5,0.7-0.5,1.6,0.2,2.2c0.3,0.2,0.6,0.4,1,0.4c0.4,0,0.9-0.2,1.2-0.6c0.9-1.1,1.7-2.2,2.4-3.4c0,0,0,0,0,0c0,0,0,0,0,0
			c1.8-3.2,2.9-6.8,3.2-10.5h4.6c-0.5,9.4-5.6,17.6-13,22.5l-3.1-5.3c-0.4-0.7-1.4-1-2.1-0.6c-0.7,0.4-1,1.4-0.6,2.1l3.1,5.3
			c-3.5,1.8-7.3,2.9-11.4,3.1v-4.6c1-0.1,2-0.2,3-0.4c0.8-0.2,1.4-1,1.2-1.8s-1-1.4-1.8-1.2c-1.3,0.3-2.6,0.4-4,0.4
			c-0.9,0-1.5,0.7-1.5,1.5v6.1c-2-0.1-4-0.4-5.9-0.9c-0.8-0.2-1.7,0.3-1.9,1.1c-0.2,0.8,0.3,1.7,1.1,1.9c2.7,0.7,5.4,1.1,8.2,1.1
			c5.7,0,11.1-1.5,15.8-4.2c0,0,0.1,0,0.1,0c0,0,0.1-0.1,0.1-0.1c4.3-2.5,8-6,10.7-10.2l5.4,3.1c0,0,0,0,0,0c0.1,0,0.1,0.1,0.2,0.1
			c0,0,0,0,0,0c0,0,0.1,0,0.1,0c0,0,0,0,0,0c0.1,0,0.2,0,0.4,0c0,0,0,0,0,0c0,0,0,0,0,0c0.1,0,0.1,0,0.2,0c0,0,0,0,0,0
			c0.1,0,0.2,0,0.4-0.1c0,0,0,0,0,0c0,0,0.1,0,0.1-0.1c0,0,0,0,0,0c0.1-0.1,0.2-0.1,0.3-0.2c0,0,0,0,0,0c0,0,0.1-0.1,0.1-0.1
			c0,0,0,0,0,0c0-0.1,0.1-0.1,0.1-0.2c3.5-6,5.3-12.8,5.3-19.7C188.8,92.6,184.7,82.7,177.2,75.2z M147.7,116.3
			c-6.1-0.7-10.9-5.5-11.6-11.6h4.7c0.6,3.5,3.4,6.3,7,7V116.3L147.7,116.3z"/>
	</g>
</g>
</svg>
